<svg xmlns="http://www.w3.org/2000/svg" width="16.2" height="16.6" viewBox="0 0 16.2 16.6"><g transform="translate(-19.4 -720)"><path d="M816.65,780.991a.7.7,0,0,1-.715-.68V769.9a.716.716,0,0,1,1.43,0V780.31A.7.7,0,0,1,816.65,780.991Z" transform="translate(-789.447 -49.218)" fill="#86898a"/><path d="M820.774,774.774a.711.711,0,0,1-.505-.21l-4.125-4.126a.715.715,0,1,1,1.011-1.011l4.125,4.126a.715.715,0,0,1-.505,1.221Z" transform="translate(-789.447 -49.217)" fill="#86898a"/><path d="M788.611,774.774a.715.715,0,0,1-.505-1.221l4.125-4.126a.715.715,0,0,1,1.011,1.011l-4.125,4.126A.711.711,0,0,1,788.611,774.774Z" transform="translate(-765.534 -49.217)" fill="#86898a"/><path d="M15,10v5H0V10" transform="translate(20 721)" fill="none" stroke="#86898a" stroke-linecap="round" stroke-width="1.2"/></g></svg>